<?xml version="1.0" encoding="iso-8859-1"?>
<!-- Generator: Adobe Illustrator 21.1.0, SVG Export Plug-In . SVG Version: 6.00 Build 0)  -->
<svg version="1.1" id="Layer_1" xmlns="http://www.w3.org/2000/svg" xmlns:xlink="http://www.w3.org/1999/xlink" x="0px" y="0px"
	 viewBox="0 0 200 200" style="enable-background:new 0 0 200 200;" xml:space="preserve">
<style type="text/css">
	.st0{fill:#3F5F6B;}
	.st1{fill:#11A7ED;}
	.st2{fill:#FFFFFF;}
</style>
<g id="close-x_x60_16x16">
	<path class="st0" d="M14.707,13.507c0.33,0.33,0.33,0.885,0,1.215c-0.165,0.165-0.375,0.255-0.63,0.255
		c-0.21,0-0.42-0.09-0.6-0.255L7.492,8.737l-6.015,5.984c-0.165,0.165-0.375,0.255-0.585,0.255c-0.27,0-0.465-0.09-0.645-0.255
		c-0.33-0.33-0.33-0.885,0-1.215l5.984-5.985l-5.984-6c-0.33-0.33-0.33-0.93,0-1.275c0.345-0.33,0.885-0.33,1.229,0l6.015,6.044
		l5.985-6.044c0.345-0.33,0.885-0.33,1.229,0c0.33,0.345,0.33,0.945,0,1.275l-6,6L14.707,13.507z"/>
</g>
<g id="circle-add_x60_28x28">
	<g>
		<circle class="st1" cx="13.817" cy="13.817" r="13.817"/>
	</g>
	<path class="st2" d="M14.574,22.456c-0.001,0.202-0.07,0.373-0.21,0.513c-0.139,0.139-0.31,0.209-0.513,0.21
		c-0.202,0-0.377-0.075-0.526-0.223c-0.125-0.125-0.194-0.295-0.206-0.508v-7.118l-7.136-0.018c-0.202,0-0.368-0.066-0.499-0.197
		c-0.083-0.083-0.142-0.168-0.173-0.255c-0.033-0.086-0.052-0.18-0.059-0.28c0.001-0.203,0.071-0.374,0.21-0.513
		c0.139-0.139,0.31-0.209,0.513-0.21h7.118l0.009-7.127c-0.001-0.095,0.019-0.188,0.058-0.281c0.039-0.092,0.094-0.174,0.165-0.245
		c0.072-0.072,0.153-0.126,0.246-0.166c0.092-0.038,0.188-0.06,0.29-0.067c0.202,0,0.375,0.071,0.518,0.214
		c0.143,0.143,0.213,0.316,0.214,0.518l-0.018,7.172l7.154-0.036c0.202,0,0.375,0.071,0.518,0.214
		c0.143,0.143,0.214,0.316,0.214,0.518c-0.007,0.101-0.03,0.196-0.071,0.285c-0.043,0.09-0.098,0.17-0.17,0.241
		c-0.071,0.071-0.152,0.127-0.241,0.17c-0.089,0.042-0.182,0.062-0.276,0.062h-7.136L14.574,22.456z"/>
</g>
</svg>
